<svg width="108" height="108" viewBox="0 0 108 108" fill="none" xmlns="http://www.w3.org/2000/svg">
<path d="M43.6042 35.6091C43.4977 35.1373 43.7839 34.6629 44.2552 34.5409C44.7362 34.4159 45.2282 34.7043 45.3528 35.1854C49.5575 51.3525 56.4648 61.6396 65.8843 65.7601C77.0426 70.6405 87.9208 64.9399 88.0289 64.8815C88.4675 64.6465 89.0126 64.8123 89.2474 65.2499C89.4826 65.687 89.3176 66.2335 88.879 66.4685C88.404 66.7225 77.1134 72.6372 65.1629 67.41C55.2122 63.057 47.9615 52.3682 43.6099 35.6384L43.6033 35.6095L43.6042 35.6091Z" fill="black"/>
<path d="M38.4143 44.9389C38.3714 44.7493 38.3889 44.5461 38.4785 44.357L43.4153 33.9093C43.5201 33.6869 43.7114 33.5175 43.944 33.4392C44.1769 33.3625 44.4316 33.3822 44.6485 33.4969L54.6448 38.7654C55.0837 38.9968 55.2531 39.5393 55.0214 39.9814C54.79 40.4204 54.2457 40.5891 53.8058 40.3579L44.6411 35.5277L40.1053 45.1248C39.8933 45.5743 39.3566 45.7671 38.9068 45.5541C38.6476 45.4319 38.4732 45.2 38.4142 44.9389L38.4143 44.9389Z" fill="black"/>
</svg>
