<svg width="301" height="301" viewBox="0 0 301 301" fill="none" xmlns="http://www.w3.org/2000/svg">
<path d="M220.551 139.212H80.4487L65.3987 169.312H79.0125V237.037H221.988V169.312H235.6L220.551 139.212ZM215.902 146.737L223.427 161.787H164.113L156.588 146.737H215.902ZM85.1004 146.737H144.41L136.885 161.787H77.5754L85.1004 146.737ZM214.462 229.512H154.262V203.175H146.737V229.512H86.5366V169.312H141.538L146.738 158.913V191.887H154.263V158.913L159.464 169.312H214.465L214.462 229.512Z" fill="#F6D809"/>
<path d="M94.0625 199.412H116.637V206.937H94.0625V199.412Z" fill="#F6D809"/>
<path d="M94.0625 214.462H116.637V221.987H94.0625V214.462Z" fill="#F6D809"/>
<path d="M124.162 214.462H131.687V221.987H124.162V214.462Z" fill="#F6D809"/>
<path d="M133.124 64.9557L150.498 60.528L167.873 64.9523L169.235 46.2942L178.465 30.5286L162.14 23.462L150.498 9.06689L138.853 23.462L122.528 30.5286L131.758 46.2942L133.124 64.9557ZM143.541 29.6304L150.499 21.0338L157.456 29.6355L167.682 34.0632L161.862 44.007L161.027 55.4489L150.499 52.7664L139.971 55.4455L139.136 44.0036L133.316 34.0599L143.541 29.6304Z" fill="#F6D809"/>
<path d="M75.1726 72.6355L80.64 63.3015L70.9551 59.1056L63.9608 50.4553L56.9664 59.1022L47.2815 63.298L52.7489 72.6321L53.5585 83.7652L63.9607 81.1197L74.368 83.7686L75.1726 72.6355ZM67.7989 70.3411L67.5134 74.2581L63.9609 73.3544L60.4134 74.2581L60.1228 70.3411L58.0651 66.8238L61.6513 65.2701L63.9608 62.4213L66.2671 65.2734L69.8532 66.8271L67.7989 70.3411Z" fill="#F6D809"/>
<path d="M248.248 72.6355L253.715 63.3015L244.03 59.1056L237.036 50.4553L230.041 59.1022L220.357 63.298L225.824 72.6321L226.634 83.7652L237.036 81.1197L247.443 83.7686L248.248 72.6355ZM240.874 70.3411L240.588 74.2581L237.036 73.3544L233.488 74.2581L233.203 70.3411L231.145 66.8238L234.731 65.2701L237.036 62.4213L239.342 65.2734L242.928 66.8271L240.874 70.3411Z" fill="#F6D809"/>
<path d="M80.6852 93.4303C87.849 98.2089 94.2151 104.041 99.5918 110.768L114.496 129.389L111.413 104.738C109.803 91.8664 102.929 80.0182 92.5523 72.2378L88.9477 69.5369L77.9203 91.5894L80.6852 93.4303ZM91.5276 81.202C97.8903 87.222 102.205 95.2359 103.684 103.905C98.9318 98.3246 93.54 93.3512 87.5957 89.0645L91.5276 81.202Z" fill="#F6D809"/>
<path d="M189.583 104.735L186.5 129.386L201.404 110.762C206.784 104.035 213.147 98.203 220.311 93.4245L223.072 91.5801L212.045 69.5276L208.44 72.2386C198.067 80.019 191.19 91.8642 189.583 104.735L189.583 104.735ZM213.399 89.0638C207.455 93.3487 202.06 98.3187 197.311 103.904C198.794 95.2352 203.106 87.2213 209.467 81.2013L213.399 89.0638Z" fill="#F6D809"/>
<path d="M165.55 131.688H173.075V115.922C173.075 97.8504 179.444 80.2574 191.019 66.3688L185.236 61.5532C172.541 76.7881 165.55 96.0977 165.55 115.922V131.688Z" fill="#F6D809"/>
<path d="M191.887 48.9124H199.412V56.4373H191.887V48.9124Z" fill="#F6D809"/>
<path d="M203.175 33.8625H210.7V41.3876H203.175V33.8625Z" fill="#F6D809"/>
<path d="M127.925 131.687H135.45V115.922C135.45 96.0933 128.459 76.7885 115.769 61.5527L109.986 66.3683C121.555 80.256 127.925 97.8507 127.925 115.922V131.687Z" fill="#F6D809"/>
<path d="M101.588 48.9124H109.113V56.4373H101.588V48.9124Z" fill="#F6D809"/>
<path d="M90.3 33.8625H97.825V41.3876H90.3V33.8625Z" fill="#F6D809"/>
<path d="M146.737 67.7249H154.262V75.2499H146.737V67.7249Z" fill="#F6D809"/>
<path d="M146.737 82.7749H154.262V131.687H146.737V82.7749Z" fill="#F6D809"/>
<path d="M252.087 105.35H259.612V112.875H252.087V105.35Z" fill="#F6D809"/>
<path d="M252.087 120.4H259.612V127.925H252.087V120.4Z" fill="#F6D809"/>
<path d="M259.612 112.875H267.137V120.4H259.612V112.875Z" fill="#F6D809"/>
<path d="M244.562 112.875H252.087V120.4H244.562V112.875Z" fill="#F6D809"/>
<path d="M240.8 3.76245H248.325V11.2874H240.8V3.76245Z" fill="#F6D809"/>
<path d="M240.8 18.8125H248.325V26.3375H240.8V18.8125Z" fill="#F6D809"/>
<path d="M248.325 11.2874H255.85V18.8124H248.325V11.2874Z" fill="#F6D809"/>
<path d="M233.275 11.2874H240.8V18.8124H233.275V11.2874Z" fill="#F6D809"/>
<path d="M41.3875 120.4H48.9125V127.925H41.3875V120.4Z" fill="#F6D809"/>
<path d="M41.3875 135.45H48.9125V142.975H41.3875V135.45Z" fill="#F6D809"/>
<path d="M48.9125 127.925H56.4375V135.45H48.9125V127.925Z" fill="#F6D809"/>
<path d="M33.8625 127.925H41.3875V135.45H33.8625V127.925Z" fill="#F6D809"/>
<path d="M41.3875 3.76245H48.9125V11.2874H41.3875V3.76245Z" fill="#F6D809"/>
<path d="M41.3875 18.8125H48.9125V26.3375H41.3875V18.8125Z" fill="#F6D809"/>
<path d="M48.9125 11.2874H56.4375V18.8124H48.9125V11.2874Z" fill="#F6D809"/>
<path d="M33.8625 11.2874H41.3875V18.8124H33.8625V11.2874Z" fill="#F6D809"/>
</svg>
