<svg width="23" height="22" viewBox="0 0 23 22" fill="none" xmlns="http://www.w3.org/2000/svg">
<path d="M6.15688 1.8251H4.49032C4.06162 1.82487 3.71332 2.16711 3.71107 2.59059V4.71721C3.71558 5.1391 4.06318 5.47866 4.49032 5.47866H6.17401C6.60113 5.47644 6.94668 5.13487 6.94916 4.71299V2.58638C6.9469 2.38143 6.86197 2.18584 6.71329 2.04298C6.56461 1.90012 6.36434 1.82158 6.15687 1.82514L6.15688 1.8251ZM6.07082 4.62817L4.55495 4.62795V2.67559H6.07059L6.07082 4.62817Z" fill="black"/>
<path d="M10.3812 1.82511H8.69754C8.2756 1.83423 7.93767 2.17357 7.93542 2.5906V4.71722C7.9379 5.14089 8.28595 5.48288 8.7149 5.48288H10.3986C10.8255 5.48066 11.1713 5.13909 11.1736 4.71722V2.5906C11.1724 2.38499 11.0882 2.18829 10.9393 2.04454C10.7904 1.90057 10.5894 1.82157 10.3813 1.82514L10.3812 1.82511ZM10.2952 4.62818L8.79666 4.62796V2.6756H10.3123L10.2952 4.62818Z" fill="black"/>
<path d="M6.15688 6.38457H4.49032C4.06162 6.38457 3.71332 6.72681 3.71107 7.15024V9.27685C3.71558 9.69875 4.06318 10.0383 4.49032 10.0383H6.17401C6.60113 10.0361 6.94668 9.69451 6.94916 9.27264V7.14602C6.9469 6.94108 6.86197 6.74549 6.71329 6.60263C6.56461 6.45977 6.36434 6.38122 6.15687 6.38456L6.15688 6.38457ZM6.07082 9.18765H4.55495V7.23529H6.07059L6.07082 9.18765Z" fill="black"/>
<path d="M10.3812 6.38458H8.69754C8.2756 6.39393 7.93767 6.73327 7.93542 7.15025V9.27687C7.9379 9.70055 8.28595 10.0425 8.7149 10.0425H10.3986C10.8255 10.0403 11.1713 9.69874 11.1736 9.27687V7.15025C11.1724 6.94464 11.0882 6.74794 10.9393 6.60419C10.7904 6.46022 10.5894 6.38122 10.3813 6.38456L10.3812 6.38458ZM10.2952 9.18766H8.79666V7.2353H10.3123L10.2952 9.18766Z" fill="black"/>
<path d="M6.15686 10.9441H4.4903C4.28372 10.9396 4.08345 11.0164 3.93409 11.1575C3.78474 11.2988 3.69823 11.4928 3.69372 11.6971V13.8237C3.6926 14.0316 3.7764 14.2312 3.92643 14.3769C4.07647 14.5229 4.27989 14.6025 4.4903 14.5979H6.17399C6.60111 14.5954 6.94666 14.2541 6.94914 13.8322V11.6971C6.93968 11.2735 6.58554 10.937 6.15686 10.9441V10.9441ZM6.0708 13.7472H4.55493V11.7948H6.07057L6.0708 13.7472Z" fill="black"/>
<path d="M10.3812 10.944H8.69754C8.28055 10.9531 7.94442 11.2849 7.93542 11.697V13.8237C7.9379 14.2471 8.28595 14.5893 8.7149 14.5893H10.3986C10.8255 14.5869 11.1713 14.2455 11.1736 13.8237V11.697C11.1641 11.2734 10.8102 10.9369 10.3813 10.944H10.3812ZM10.2952 13.7471H8.79666V11.7947H10.3123L10.2952 13.7471Z" fill="black"/>
<path d="M17.1546 11.0841H15.471C15.0405 11.0841 14.6915 11.4287 14.6915 11.854V13.9806C14.6915 14.4058 15.0404 14.7506 15.471 14.7506H17.1546C17.5833 14.7481 17.9296 14.4043 17.9296 13.9806V11.854C17.9296 11.4305 17.5834 11.0865 17.1546 11.0841ZM17.0686 13.8914H15.5527V11.9347H17.0683L17.0686 13.8914Z" fill="black"/>
<path d="M17.1546 15.6482H15.471C15.042 15.6482 14.6937 15.9904 14.6915 16.4139V18.5405C14.6915 18.9657 15.0404 19.3104 15.471 19.3104H17.1546C17.5833 19.308 17.9296 18.964 17.9296 18.5405V16.4139C17.9273 15.992 17.5815 15.6507 17.1546 15.6482ZM17.0686 18.4513H15.5527V16.4989H17.0683L17.0686 18.4513Z" fill="black"/>
<path d="M20.4834 20.4162V10.208C20.4834 9.91341 20.3651 9.63103 20.1542 9.42299C19.9434 9.21472 19.6575 9.09789 19.3595 9.09789H13.2666C13.1781 9.10056 13.0902 9.11191 13.0039 9.13194V1.11013C13.0039 0.815733 12.8854 0.533358 12.6748 0.325322C12.464 0.117046 12.1781 0 11.8801 0H2.97112C2.67308 0 2.38721 0.117046 2.17637 0.325322C1.96551 0.533375 1.84724 0.815756 1.84724 1.11013V20.4161H0V21.2668H22.3311V20.4161L20.4834 20.4162ZM6.18744 20.4162V16.4222H8.66347V20.4162H6.18744ZM9.52466 20.4162V16.3414C9.52579 16.1376 9.44469 15.9417 9.29916 15.7973C9.15386 15.6527 8.95606 15.5715 8.74971 15.5715H6.10137C5.67267 15.5739 5.32622 15.9179 5.3264 16.3414V20.4162H2.70827V1.11017C2.70827 0.966869 2.82587 0.850712 2.97094 0.850712H11.8799C12.025 0.850712 12.1425 0.966869 12.1425 1.11017V20.4162L9.52466 20.4162ZM13.004 20.4162V10.208C13.004 10.0647 13.1216 9.94857 13.2667 9.94857H19.3596C19.5038 9.95079 19.62 10.0656 19.6223 10.208V20.4162H13.004Z" fill="black"/>
</svg>
