<svg width="99" height="122" viewBox="0 0 99 122" fill="none" xmlns="http://www.w3.org/2000/svg">
<g clip-path="url(#clip0_2061_432)">
<path d="M15.8529 73.5618C15.6998 73.5845 15.5435 73.5612 15.4034 73.4945C15.2633 73.4279 15.1458 73.3211 15.0654 73.1873C14.9408 72.9045 14.8841 72.596 14.9 72.2869C14.9 71.9283 14.9 71.6016 14.9 71.2908C14.8987 69.3694 15.0887 67.4527 15.467 65.5697C15.8451 63.6893 16.2546 61.8168 16.8058 59.9921C16.8058 59.8725 16.9082 59.6574 17.0027 59.3466C17.0972 59.0359 17.1996 58.6853 17.3177 58.3267C17.4359 57.9681 17.5382 57.6255 17.6406 57.3148L17.8532 56.6853C17.9914 56.1598 18.2444 55.6724 18.5935 55.259C18.7559 55.104 18.9481 54.9844 19.1581 54.9077C19.368 54.8309 19.5914 54.7986 19.8142 54.8128C20.0394 54.8094 20.2629 54.8521 20.4713 54.9383C20.6797 55.0246 20.8687 55.1526 21.027 55.3147C21.3581 55.6683 21.6247 56.0783 21.8145 56.5259C22.0195 56.9598 22.1958 57.407 22.3422 57.8646C22.6677 58.8632 22.9984 59.8752 23.3344 60.9004C23.681 61.9203 24.0038 62.9323 24.3031 63.9283C24.4527 64.4303 24.6654 64.6773 24.9252 64.6773C25.1851 64.6773 25.5946 64.2709 25.8939 63.4422C26.0435 63.0199 26.2325 62.51 26.453 61.9044C26.6736 61.2988 26.8941 60.6853 27.1224 60.0638C27.3508 59.4422 27.5477 58.8765 27.7288 58.3825L28.1147 57.3148C28.3622 56.6334 28.7014 55.9899 29.1228 55.4024C29.3076 55.1609 29.5473 54.9682 29.8215 54.8405C30.0957 54.7129 30.3963 54.6542 30.6978 54.6693C30.9327 54.6581 31.1671 54.7002 31.3837 54.7926C31.6004 54.885 31.7939 55.0253 31.95 55.2032C32.2864 55.5826 32.5531 56.0197 32.7375 56.494C32.9382 56.9769 33.1091 57.4719 33.2494 57.9761C33.7609 59.9344 34.1554 61.922 34.4307 63.9283C34.7034 65.9217 34.8402 67.9318 34.8402 69.9442V71.0677C34.8226 71.1629 34.7864 71.2535 34.7336 71.3342C34.6809 71.415 34.6127 71.4842 34.5331 71.5378C34.3044 71.6245 34.0599 71.6598 33.8164 71.6414C33.3439 71.6414 33.0289 71.3227 32.7926 70.6932C32.68 70.3468 32.6061 69.9886 32.5721 69.6255L32.454 68.5339C32.265 66.579 32.0996 65.012 31.9579 63.8327C31.8161 62.6534 31.6901 61.7371 31.5877 61.0837C31.4853 60.4303 31.3908 59.9283 31.32 59.5777C31.2491 59.2271 31.1625 58.8924 31.0916 58.5817C31.0207 58.2709 30.8711 58.0638 30.6112 58.0638C30.4598 58.0741 30.3146 58.1285 30.1931 58.2204C30.0715 58.3123 29.9788 58.4377 29.926 58.5817C29.8079 58.9243 29.6425 59.4263 29.4299 60.0797C29.2173 60.7331 28.9653 61.4183 28.7054 62.1514C28.4455 62.8845 28.2014 63.5379 27.9887 64.1355L27.5635 65.3705L27.1697 66.3905C26.9922 66.8309 26.787 67.2594 26.5554 67.6733C26.3419 68.066 26.077 68.4279 25.7679 68.749C25.6518 68.8822 25.5104 68.9903 25.352 69.0669C25.1937 69.1436 25.0218 69.1872 24.8465 69.1952C24.6891 69.1936 24.5339 69.158 24.3912 69.0906C24.2486 69.0233 24.1219 68.9258 24.0196 68.8048C23.7692 68.541 23.5642 68.2367 23.4132 67.9044C23.2478 67.5538 23.1218 67.2669 23.0273 67.0359L20.6647 59.9921C20.6367 59.8517 20.5999 59.7133 20.5545 59.5777C20.4927 59.3903 20.3994 59.2151 20.2788 59.0598C20.2196 58.9778 20.141 58.9122 20.0501 58.8691C19.9593 58.8259 19.8592 58.8066 19.7591 58.8128C19.6575 58.8113 19.5573 58.837 19.4688 58.8874C19.3803 58.9378 19.3065 59.011 19.255 59.0996C19.1297 59.3033 19.0392 59.5269 18.9873 59.761C18.9398 59.9607 18.903 60.1628 18.877 60.3666C18.877 60.5578 18.7825 60.8048 18.7038 61.0996C18.625 61.3944 18.5541 61.7052 18.4754 62.0319C18.3966 62.3586 18.3415 62.5976 18.2943 62.8287C18.2599 63.0275 18.2152 63.2243 18.1604 63.4183C18.1604 63.5538 18.1053 63.7928 18.0344 64.1355C17.9635 64.4781 17.9084 64.8446 17.8532 65.2351C17.7036 66.2311 17.5619 67.2032 17.4359 68.1514C17.3099 69.0996 17.1996 70.1275 17.0815 71.243C17.0626 71.5917 17.0151 71.9381 16.9397 72.2789C16.8807 72.6098 16.7488 72.923 16.5538 73.1952C16.4736 73.3076 16.3683 73.3994 16.2466 73.463C16.1248 73.5267 15.99 73.5605 15.8529 73.5618Z" fill="#1D1D1B"/>
<path d="M44.2275 73.4183C43.0804 73.4812 41.9384 73.222 40.9278 72.6692C40.1224 72.1603 39.5308 71.3688 39.2661 70.4462C38.9235 69.2535 38.7641 68.0145 38.7936 66.7728C38.7936 66.1035 38.7936 65.3864 38.8802 64.6215C38.1399 64.3346 37.7698 63.976 37.7698 63.5537C37.7548 63.4012 37.7796 63.2473 37.8418 63.1074C37.904 62.9676 38.0014 62.8468 38.1242 62.7569C38.379 62.5858 38.6577 62.4542 38.9511 62.3665C39.2284 62.2909 39.4936 62.1755 39.7386 62.0238C39.778 61.7928 39.841 61.4422 39.9118 60.972C39.9827 60.5019 40.0694 60.0079 40.156 59.474C40.2426 58.9402 40.3214 58.478 40.3922 58.0637C40.4631 57.6493 40.5182 57.4023 40.5419 57.3067C40.2796 57.1743 39.9922 57.101 39.6992 57.0916C39.3829 57.0688 39.072 56.9962 38.7778 56.8764C38.644 56.8137 38.5331 56.7098 38.461 56.5797C38.3889 56.4495 38.3592 56.2996 38.3762 56.1513C38.3629 55.9957 38.3842 55.839 38.4388 55.6928C38.4933 55.5466 38.5796 55.4147 38.6912 55.3067C38.9921 55.0868 39.3455 54.952 39.715 54.9163C40.9278 54.7091 42.0775 54.5338 43.2116 54.3983C44.3722 54.2618 45.5398 54.1952 46.7082 54.1991H47.7871C48.2484 54.1983 48.7091 54.2329 49.1653 54.3027C49.5802 54.3497 49.9817 54.4798 50.3466 54.6852C50.4996 54.7693 50.6259 54.8955 50.7109 55.0492C50.7959 55.2029 50.8362 55.3778 50.827 55.5537C50.8301 55.7501 50.7661 55.9414 50.6458 56.0956C50.5995 56.1649 50.5374 56.2221 50.4648 56.2622C50.3922 56.3024 50.3112 56.3245 50.2284 56.3266H45.9679H45.3458C44.9993 56.3266 44.6291 56.3505 44.2354 56.3983C43.8921 56.422 43.5546 56.5 43.2352 56.6294C42.9517 56.741 42.7233 57.0995 42.5579 57.6892C42.3698 58.3825 42.2459 59.0921 42.1878 59.8087C42.109 60.6055 42.0697 61.4023 42.0697 62.1991L43.1801 62.1274C43.6762 62.1274 44.1881 62.0717 44.7551 62.0557C45.3222 62.0398 45.7474 62.0557 46.1018 62.0557H47.2437C47.4037 62.0363 47.5659 62.0519 47.7194 62.1014C47.873 62.1509 48.0142 62.2331 48.1336 62.3426C48.3096 62.5685 48.3965 62.8524 48.3777 63.1394C48.3777 63.7928 48.0155 64.1434 47.2988 64.2071L42.4949 64.5179C42.12 64.4911 41.7467 64.5891 41.4318 64.7968C41.2133 65.0465 41.0855 65.3641 41.0695 65.6971L40.9986 66.5338C40.9986 66.725 40.9986 66.9003 40.9986 67.0517C41.0054 67.1711 41.0054 67.2909 40.9986 67.4103V67.6812C41.0005 68.1485 41.04 68.6148 41.1168 69.0756C41.1837 69.5496 41.3619 70.0004 41.6365 70.3904C41.9564 70.8106 42.4198 71.0947 42.936 71.1872H44.385C45.3972 71.1848 46.408 71.1075 47.4091 70.9561C48.4801 70.8047 49.4252 70.6294 50.2363 70.4382C50.2832 70.4291 50.3312 70.4291 50.3781 70.4382H50.4962C50.6026 70.4251 50.7105 70.4456 50.805 70.497C50.8994 70.5483 50.9759 70.628 51.0238 70.725C51.1108 70.923 51.1538 71.1379 51.1499 71.3545C51.1499 72.2151 50.2836 72.8206 48.5668 73.1712C47.8811 73.3095 47.1861 73.3947 46.4877 73.4262C45.7002 73.4023 44.9126 73.4183 44.2275 73.4183Z" fill="#1D1D1B"/>
<path d="M56.9618 73.4183C56.766 73.417 56.5747 73.3589 56.4105 73.251C56.2577 73.1627 56.1322 73.033 56.0483 72.8764V72.0796C56.0491 71.6685 56.1129 71.2599 56.2373 70.8685C56.3592 70.4707 56.4591 70.0663 56.5366 69.6573C56.5366 69.5059 56.5995 69.3306 56.6232 69.1314C56.6468 68.9322 56.6232 68.5976 56.6232 68.1354H55.0481L54.6544 68.0796L54.3078 68.0239C54.1701 67.9598 54.0488 67.8643 53.9535 67.745C53.8271 67.5436 53.7716 67.3049 53.796 67.0677C53.7757 66.9229 53.7894 66.7754 53.8359 66.637C53.8824 66.4986 53.9605 66.3731 54.0637 66.2709C54.3299 66.1041 54.6277 65.9955 54.9379 65.9521C55.1426 65.9521 55.3631 65.8804 55.5994 65.8565L56.2688 65.7848C56.5113 65.7426 56.7507 65.6841 56.9854 65.6095C57.2334 65.5311 57.4636 65.4038 57.6627 65.235C57.8437 65.0732 58.0146 64.9002 58.1746 64.7171C58.2246 64.6638 58.2647 64.6017 58.2927 64.5338C58.3242 64.4435 58.3715 64.332 58.4345 64.1992L58.5447 63.9282C58.5798 63.8292 58.6087 63.7281 58.6314 63.6255C58.6865 63.4741 58.7416 63.3227 58.7889 63.1793C58.8202 63.0612 58.8737 62.9503 58.9464 62.8526C59.0724 62.5976 59.2771 62.1992 59.537 61.6573L60.4112 59.8725C60.7157 59.2297 60.9992 58.648 61.2617 58.1274C61.5137 57.6175 61.7027 57.2589 61.813 57.0677C62.002 56.741 62.1989 56.4143 62.3957 56.0876C62.5938 55.7642 62.8177 55.4577 63.0651 55.1713C63.5901 54.5179 64.0548 54.1912 64.4591 54.1912C64.7916 54.1817 65.1189 54.2763 65.3962 54.4621C65.6894 54.6793 65.9404 54.9494 66.1365 55.2589C66.3612 55.5997 66.5562 55.9596 66.7193 56.3346C66.8768 56.7091 67.0421 57.0916 67.2154 57.4741C68.2152 59.6754 69.0933 61.9312 69.8457 64.231C70.5973 66.5204 71.2101 68.8541 71.6807 71.2191V71.6254C71.687 71.9319 71.5867 72.2309 71.3972 72.4701C71.2082 72.7091 71.0428 72.8286 70.9089 72.8286C70.7137 72.8425 70.5183 72.805 70.3416 72.7198C70.165 72.6347 70.0132 72.5047 69.9009 72.3426C69.6348 71.8921 69.4557 71.3946 69.3732 70.8764C69.3023 70.5497 69.2393 70.231 69.1921 69.9123C69.1448 69.5936 69.0897 69.2988 69.0346 69.004C68.9443 68.701 68.8256 68.4075 68.6802 68.1275C68.5471 67.8603 68.3889 67.6068 68.2077 67.3705H65.0576H64.0338H62.8368C62.4105 67.371 61.9846 67.3949 61.561 67.4422C61.1399 67.487 60.7267 67.5888 60.3324 67.745C59.8726 67.9096 59.4795 68.2234 59.2141 68.6374C58.9495 69.0468 58.7576 69.4998 58.6471 69.9761C58.5211 70.4621 58.4108 70.9402 58.3163 71.3944C58.2309 71.8775 58.1125 72.3541 57.962 72.8207C57.8848 73.0187 57.7445 73.1851 57.5634 73.2933C57.3822 73.4016 57.1705 73.4455 56.9618 73.4183ZM64.2937 65.2509C65.3437 65.2509 66.084 65.2509 66.5145 65.2509C66.6587 65.2585 66.8029 65.2362 66.9383 65.1855C67.0736 65.1348 67.1974 65.0568 67.302 64.9561C67.3646 64.791 67.3941 64.615 67.3887 64.4382C67.3845 64.1339 67.3422 63.8313 67.2627 63.5378C67.1859 63.2329 67.0859 62.9345 66.9634 62.6454L66.6248 61.7689C66.4751 61.3784 66.3019 60.9721 66.1129 60.4621L65.5695 59.0756L65.1757 58.0398C65.1241 57.8858 65.0409 57.7447 64.9316 57.6255C64.8786 57.5585 64.8115 57.5045 64.7352 57.4672C64.6589 57.43 64.5753 57.4106 64.4905 57.4103C64.3982 57.4211 64.3094 57.4524 64.2304 57.502C64.1514 57.5516 64.0843 57.6182 64.0338 57.6972C63.7778 58.0747 63.5463 58.4686 63.3408 58.8764C63.0494 59.4342 62.7265 60.0478 62.3879 60.7171C62.0492 61.3864 61.7342 62.0398 61.4507 62.6613C61.1672 63.2828 60.9546 63.7689 60.8207 64.1115C60.7264 64.3003 60.6702 64.5061 60.6553 64.7171C60.6416 64.8187 60.6643 64.9219 60.7192 65.008C60.774 65.0942 60.8575 65.1578 60.9546 65.1872C61.1493 65.2569 61.3544 65.292 61.561 65.2908L64.2937 65.2509Z" fill="#1D1D1B"/>
<path d="M75.9491 73.0039C75.6735 73.0371 75.3951 72.9723 75.1616 72.8207C74.9974 72.6521 74.8923 72.4338 74.8623 72.1991V70.9083C74.8623 69.3147 74.9279 67.7211 75.0592 66.1274C75.1904 64.5338 75.3191 62.9216 75.4451 61.2908C75.5658 59.6972 75.6262 58.0823 75.6262 56.4462C75.614 56.054 75.7334 55.6693 75.9648 55.3545C76.0683 55.218 76.2021 55.1079 76.3553 55.0332C76.5085 54.9585 76.6768 54.9211 76.8469 54.9242C76.9968 54.8983 77.151 54.9168 77.2908 54.9776C77.4305 55.0385 77.5499 55.1389 77.6344 55.2669C77.7587 55.5271 77.8156 55.815 77.7998 56.1035C77.7998 56.4302 77.7998 56.741 77.7998 57.0518C77.7998 59.1792 77.6895 61.3306 77.4848 63.5059C77.28 65.6812 77.1698 67.992 77.1698 70.4223L79.2173 70.1673L81.6508 69.8804C82.4383 69.7848 83.0998 69.7131 83.596 69.6733H85.2734C85.6002 69.6737 85.9265 69.6976 86.2499 69.745C86.5451 69.7793 86.8283 69.883 87.0769 70.0478C87.1854 70.1256 87.2726 70.2301 87.3305 70.3513C87.3883 70.4725 87.4148 70.6066 87.4076 70.741C87.4337 70.922 87.4056 71.1068 87.327 71.2715C87.2484 71.4362 87.1229 71.5734 86.9666 71.6653C86.6448 71.8008 86.2992 71.8686 85.9507 71.8645H85.5018H85.045C83.6867 71.8811 82.3302 71.9715 80.9814 72.1354C79.4393 72.3078 77.9124 72.5981 76.4137 73.0039H75.9491Z" fill="#1D1D1B"/>
<path d="M22.7044 105.036C21.4358 105.092 20.1703 104.869 18.9951 104.382C18.6051 104.252 18.2644 104.003 18.0192 103.669C17.774 103.335 17.6364 102.933 17.6249 102.518C17.4064 102.507 17.1934 102.445 17.0033 102.335C16.8131 102.226 16.651 102.073 16.5302 101.888C16.3166 101.511 16.1926 101.088 16.1679 100.653C16.1679 100.167 16.1128 99.6972 16.1128 99.243V98.4462C16.2939 97.0518 16.4593 95.753 16.6247 94.5418C16.7944 93.2475 16.876 91.943 16.8688 90.6374C16.8688 89.5219 16.8688 88.5577 16.8688 87.745C16.8688 86.9322 16.7979 85.9761 16.6956 84.8844C16.7743 84.3824 16.4829 84 15.8293 83.745C15.7088 83.6853 15.582 83.6399 15.4513 83.6095C15.2851 83.5646 15.122 83.5087 14.963 83.4422C14.7306 83.3507 14.5189 83.2125 14.3409 83.0358C14.1629 82.811 14.0756 82.5263 14.0967 82.239C14.1091 81.9125 14.1976 81.5937 14.355 81.3084C14.5124 81.0231 14.7342 80.7795 15.0024 80.5976C15.6979 80.0628 16.4745 79.6457 17.302 79.3625C18.2661 79.0086 19.2527 78.7211 20.2552 78.502C21.2175 78.287 22.1901 78.1221 23.169 78.0079C23.8694 77.9195 24.5739 77.869 25.2796 77.8565C26.4704 77.8425 27.6509 78.0814 28.7447 78.5577C29.7612 78.9966 30.6445 79.7005 31.3042 80.5976C31.9719 81.5382 32.315 82.6751 32.2807 83.8326C32.3012 84.8807 32.0829 85.9195 31.6428 86.8685C31.1878 87.7634 30.4264 88.4602 29.5008 88.8286C30.7877 88.9825 32.0439 89.3346 33.2258 89.8725C34.2254 90.3543 35.0513 91.1398 35.5883 92.1195C36.2072 93.3906 36.4971 94.7998 36.431 96.2151C36.464 97.1223 36.3196 98.0271 36.0061 98.8776C35.6926 99.7281 35.216 100.508 34.6039 101.171C33.233 102.56 31.5243 103.557 29.6504 104.064C27.3947 104.73 25.0543 105.058 22.7044 105.036ZM22.287 102.064C23.2714 102.064 24.2952 102.016 25.382 101.928C26.4564 101.835 27.5149 101.605 28.5321 101.243C29.6099 100.856 30.5929 100.239 31.4145 99.4342C31.9849 98.9135 32.5117 98.3458 32.9895 97.737C33.45 97.0779 33.6749 96.2798 33.6274 95.4741C33.6529 94.7506 33.4114 94.0434 32.9501 93.49C32.4852 92.945 31.9142 92.5028 31.2727 92.1912C30.6185 91.8664 29.9322 91.6126 29.2251 91.4342C28.9688 91.3551 28.7048 91.3043 28.4376 91.2828C28.1462 91.2828 27.8706 91.243 27.5949 91.243C26.8558 91.2416 26.118 91.3056 25.3899 91.4342C24.8003 91.5486 24.2023 91.6125 23.6022 91.6255C23.3493 91.6406 23.0982 91.5736 22.8855 91.4342C22.8168 91.3715 22.7611 91.2955 22.7219 91.2106C22.6827 91.1258 22.6607 91.0338 22.6572 90.9402C22.6502 90.5707 22.7007 90.2023 22.8068 89.8486C22.9403 89.5248 23.1649 89.2477 23.4526 89.0518C23.7546 88.8438 24.0674 88.6522 24.3897 88.4781C24.5834 88.3538 24.7861 88.2446 24.9961 88.1514C25.193 88.0637 25.3977 87.9681 25.5946 87.8645C26.2549 87.5716 26.892 87.228 27.5004 86.8366C28.0624 86.4821 28.5473 86.0159 28.9259 85.4661C29.3054 84.8801 29.4979 84.1903 29.4771 83.49C29.4895 83.1746 29.429 82.8605 29.3005 82.5728C29.172 82.2851 28.979 82.0317 28.7369 81.8326C28.2404 81.4078 27.6566 81.1003 27.0279 80.9323C26.4509 80.768 25.8553 80.6797 25.256 80.6693C24.5813 80.6733 23.9078 80.7239 23.2399 80.8207C22.504 80.9216 21.7872 81.1338 21.1136 81.4502C20.451 81.7565 19.8804 82.2349 19.4598 82.8366V84.6693C19.4598 85.992 19.4913 87.2988 19.5543 88.5896C19.6173 89.8804 19.6488 91.1633 19.6488 92.4382V94.2709C19.6488 94.4701 19.6488 94.8207 19.6094 95.3147C19.57 95.8087 19.5543 96.3107 19.5149 96.8207C19.4755 97.3307 19.4598 97.6813 19.4598 97.8884C19.4557 98.0937 19.4239 98.2974 19.3653 98.494C19.3023 98.7251 19.2314 98.98 19.1605 99.2908C19.0897 99.6016 19.0109 99.9601 18.9479 100.303C18.8825 100.674 18.8508 101.05 18.8534 101.426C19.2499 101.784 19.7561 101.992 20.2867 102.016C20.9246 102.032 21.5861 102.064 22.287 102.064Z" fill="#1D1D1B"/>
<path d="M50.5671 104.876C49.0961 104.895 47.6425 104.553 46.3302 103.88C45.0621 103.224 43.9456 102.303 43.0541 101.179C42.1323 100.023 41.4131 98.7164 40.9278 97.3147C40.4149 95.8921 40.1485 94.3907 40.1403 92.8765C40.0276 89.9589 40.857 87.0836 42.5028 84.6852C44.2537 82.3879 46.6053 80.6324 49.2913 79.6175C50.0788 79.3147 50.9766 79.0119 51.9295 78.7171C52.7706 78.4459 53.6458 78.2983 54.5284 78.2789C55.2256 78.2698 55.9197 78.3747 56.5838 78.5896C57.1695 78.7736 57.6949 79.1151 58.1037 79.5777C58.357 79.8434 58.5505 80.1614 58.6708 80.51C58.769 80.8108 58.8196 81.1254 58.8204 81.4422C59.0713 81.6804 59.2934 81.9479 59.4819 82.239L60.1434 83.2111C61.0179 84.4067 61.6618 85.7583 62.0414 87.1952C62.393 88.6662 62.5623 90.1759 62.5454 91.6892C62.5539 93.3773 62.2632 95.0532 61.687 96.6374C61.1229 98.1877 60.285 99.6214 59.2142 100.868C58.1594 102.107 56.8648 103.113 55.4104 103.825C53.8963 104.544 52.2397 104.904 50.5671 104.876ZM50.9451 102.096C52.3 102.131 53.6357 101.765 54.7883 101.044C55.8623 100.351 56.7736 99.4293 57.458 98.3426C58.1638 97.2374 58.6952 96.0277 59.033 94.7569C59.3653 93.5612 59.5375 92.3257 59.5449 91.0836C59.5279 90.4061 59.4515 89.7315 59.3165 89.0677C59.1547 88.2053 58.9229 87.3578 58.6235 86.5339C58.3168 85.6718 57.918 84.8462 57.4343 84.0717C56.9908 83.348 56.4164 82.7154 55.7412 82.2071C55.112 81.7304 54.3457 81.4757 53.5597 81.4821C52.0751 81.4595 50.6057 81.7869 49.2677 82.4382C48.0012 83.0589 46.8771 83.9411 45.9679 85.0279C45.0591 86.115 44.3521 87.3595 43.881 88.7012C43.4054 90.0406 43.1629 91.4533 43.1644 92.8765C43.1653 93.9843 43.319 95.0865 43.6211 96.1514C43.9091 97.2174 44.381 98.2236 45.015 99.1235C45.6505 100.019 46.4802 100.755 47.4406 101.275C48.5245 101.832 49.73 102.103 50.9451 102.064V102.096Z" fill="#1D1D1B"/>
<path d="M85.2498 103.323C84.3191 103.306 83.4219 102.969 82.7061 102.367C81.881 101.727 81.1284 100.998 80.4616 100.191C79.5849 99.0758 78.863 98.0744 78.2959 97.1873C77.7368 96.2949 77.28 95.5937 76.9256 95.0678C76.5712 94.5419 76.2562 94.271 75.9885 94.271C75.8433 94.2802 75.7019 94.3213 75.574 94.3915C75.4461 94.4617 75.3349 94.5592 75.2482 94.6774C75.0662 94.8859 74.8715 95.0828 74.6654 95.267C74.3846 95.581 74.1217 95.9108 73.8779 96.255C73.6968 96.4861 73.4999 96.7411 73.2715 97.0518C73.0431 97.3626 72.8226 97.6176 72.5942 97.9284C72.1217 98.51 71.6886 99.0519 71.3184 99.522C71.1119 99.8061 70.8828 100.073 70.6333 100.319C70.2096 100.845 69.701 101.295 69.1291 101.649C68.6335 102.011 68.0459 102.221 67.4359 102.255C67.3238 102.265 67.2108 102.251 67.1039 102.216C66.997 102.18 66.8983 102.123 66.8138 102.048C66.6411 101.77 66.5687 101.441 66.609 101.116C66.6046 100.639 66.7155 100.168 66.9319 99.7451C67.1841 99.2528 67.4934 98.7927 67.8533 98.3746C68.0502 98.1435 68.3494 97.8168 68.7353 97.3785L69.9954 95.9921C70.4522 95.4981 70.8774 95.0359 71.2791 94.6216C71.6807 94.2072 71.98 93.8805 72.1847 93.6495L72.9722 92.5419C73.265 92.1742 73.4358 91.7225 73.4605 91.251C73.4614 91.08 73.4237 90.9111 73.3502 90.757C72.4682 89.4821 71.5626 88.0797 70.6175 86.5419C69.6725 85.004 68.7038 83.4503 67.7037 81.8726C67.466 81.5204 67.3388 81.1038 67.3388 80.6773C67.3388 80.2509 67.466 79.8343 67.7037 79.4821C67.7927 79.3272 67.9185 79.1972 68.0698 79.1039C68.2211 79.0107 68.393 78.9572 68.57 78.9482C68.7642 78.9678 68.951 79.0336 69.1153 79.1402C69.2795 79.2469 69.4165 79.3913 69.515 79.5618C70.9745 81.7451 72.1112 83.4582 72.925 84.7012C73.7125 85.9443 74.3425 86.8526 74.7284 87.4264C74.9715 87.8016 75.2344 88.1634 75.5159 88.51C75.6577 88.6614 75.7758 88.7411 75.8782 88.7411C76.7165 88.1387 77.521 87.4897 78.2881 86.7969C79.0756 86.1116 79.8631 85.3387 80.7136 84.4702C81.5642 83.6017 82.6037 82.6216 83.785 81.506C84.2102 81.1236 84.7064 80.7092 85.2734 80.2231C85.7034 79.8136 86.2595 79.566 86.8485 79.5219C87.0473 79.5212 87.2429 79.5735 87.4155 79.6733C87.8644 79.9522 88.0928 80.2471 88.0928 80.5498C88.0787 80.7291 88.0297 80.9038 87.9486 81.0638C87.8675 81.2238 87.7559 81.366 87.6203 81.4821C87.3053 81.8009 86.9508 82.1355 86.5492 82.4941C85.1159 83.8407 83.8007 85.1236 82.6116 86.3586C81.4224 87.5937 80.4144 88.6614 79.6347 89.5459C79.0627 90.1586 78.58 90.8508 78.2014 91.6016C78.2904 92.1727 78.5028 92.7169 78.8236 93.1953C79.2222 93.8612 79.6559 94.5049 80.123 95.1236C80.6034 95.7451 80.9814 96.2152 81.257 96.5499C82.1685 97.6224 83.1611 98.6214 84.226 99.5379C85.2761 100.414 86.0793 101.068 86.6359 101.498C86.9115 101.705 87.0532 101.904 87.0532 102.112C87.0532 102.319 86.817 102.709 86.3366 102.908C86.0037 103.115 85.6348 103.256 85.2498 103.323Z" fill="#1D1D1B"/>
<path d="M98.7953 70.2072C98.2834 54.4223 96.4327 29.9362 93.9835 27.4821C92.5423 26.0319 82.9975 24.8287 72.0351 24.008C72.106 23.259 72.1453 22.502 72.1453 21.745C72.1964 18.7069 71.608 15.6924 70.4192 12.902C69.2304 10.1117 67.4683 7.60915 65.2501 5.56073C63.0319 3.51232 60.4083 1.96491 57.5536 1.02127C54.6989 0.0776381 51.6784 -0.240635 48.6928 0.0876313C36.7303 1.14739 26.8468 11.243 25.5789 23.1076C15.782 23.6335 7.15863 24.8685 4.57554 27.4821C-0.267751 32.3825 -0.259877 58.7809 0.181138 74.0717C0.637904 90.0637 2.35471 114.765 4.57554 117.012C6.79637 119.259 30.7214 121.211 47.1571 121.793C50.9058 121.928 55.3159 122.024 59.9308 122.024C74.0512 122.024 89.9907 121.076 93.9835 117.036C99.3072 111.626 99.252 85.3785 98.7953 70.2072ZM48.8897 2.34263C49.5197 2.28685 50.1497 2.25496 50.764 2.25496C53.2973 2.22138 55.8114 2.70347 58.157 3.67256C60.5025 4.64165 62.6315 6.07795 64.4174 7.89612C66.2034 9.71429 67.6099 11.8772 68.5532 14.2563C69.4966 16.6354 69.9575 19.1821 69.9088 21.745C69.9088 22.4515 69.8773 23.1527 69.8143 23.8486C69.7355 24.5976 69.6331 25.3386 69.4835 26.0717C67.5147 36.0319 58.9385 44.1833 48.6928 45.0836C46.0154 45.3898 43.3042 45.1132 40.741 44.2724C38.1779 43.4316 35.8221 42.046 33.8315 40.2086C31.841 38.3712 30.2618 36.1243 29.1997 33.6188C28.1377 31.1133 27.6174 28.4069 27.6737 25.6813C27.6737 25.5458 27.6737 25.4183 27.6737 25.2828C27.6737 24.486 27.7446 23.753 27.8312 23.004C29.1621 12.3028 38.0848 3.2988 48.8897 2.34263ZM92.4084 115.418C89.0536 118.805 72.3816 120.343 47.8108 119.538C26.2089 118.821 8.10366 116.598 6.15846 115.41C5.05593 113.522 3.00836 96.0558 2.39409 73.4104C1.73256 49.0837 3.18162 32.0956 6.15059 29.0837C7.96978 27.243 14.8921 25.9681 25.445 25.3944C25.445 25.49 25.445 25.5856 25.445 25.6813C25.3953 28.5406 25.9132 31.381 26.9683 34.0341C28.0233 36.6872 29.5939 39.0991 31.587 41.1269C33.5801 43.1546 35.9551 44.757 38.5715 45.8391C41.1878 46.9211 43.9922 47.4608 46.8185 47.4263C47.5036 47.4263 48.1967 47.4263 48.8976 47.3386C60.2143 46.3347 69.6646 37.2749 71.7358 26.2311C83.596 27.1235 91.424 28.3028 92.4005 29.0598C93.6055 30.6534 95.8893 48.0956 96.5902 70.749C97.3383 95.3147 95.779 112 92.4084 115.418Z" fill="#008D36"/>
<path d="M62.6638 37.1628C70.6672 28.7038 70.9458 15.832 63.286 8.41289C55.6261 0.993751 42.9286 1.83675 34.9252 10.2958C26.9218 18.7548 26.6433 31.6266 34.3031 39.0457C41.9629 46.4649 54.6605 45.6219 62.6638 37.1628Z" fill="#3AAA35"/>
<path d="M52.6462 10.4462C52.0083 10.8685 51.4728 12.0398 51.2208 13.6334C51.0416 14.8044 51.0204 15.9946 51.1578 17.1713C51.1851 17.7234 51.3188 18.2648 51.5515 18.7649C51.7086 19.0738 51.9244 19.3483 52.1866 19.5725C52.4488 19.7968 52.7522 19.9664 53.0793 20.0717C53.3036 20.1345 53.5092 20.2521 53.6778 20.4143C53.7251 20.486 53.733 20.5099 53.8117 21.1076C53.9928 22.502 54.1661 24.3745 54.2606 26.1036C54.3 26.8127 54.3315 27.49 54.3709 28.9163C54.4418 30.9323 54.4575 31.259 54.5284 32.1036C54.5745 32.6413 54.6641 33.1743 54.7961 33.6972C54.876 33.9871 54.9733 34.2719 55.0875 34.5498C55.1655 34.7587 55.3214 34.9284 55.5216 35.0222C55.7219 35.1161 55.9506 35.1267 56.1586 35.0518C56.4324 34.9579 56.6624 34.7649 56.8043 34.51C56.9943 34.1712 57.0793 33.7826 57.0485 33.3944C57.061 32.8764 57.0214 32.3585 56.9303 31.8486C56.7777 30.7204 56.5568 29.6028 56.2688 28.502C55.686 25.9442 55.4813 25.0518 55.2057 23.4024C55.0718 22.6056 54.7489 20.5099 54.7331 20.2868C54.7174 20.0637 54.804 19.8327 55.1978 19.3785C55.4982 19.0616 55.7624 18.7114 55.9853 18.3347C56.2838 17.7687 56.4355 17.1354 56.4263 16.494C56.3755 15.6863 56.2463 14.8856 56.0404 14.1036C55.4655 11.9761 54.4654 10.5418 53.4337 10.3745C53.1713 10.3006 52.8913 10.3261 52.6462 10.4462Z" fill="white"/>
<path d="M45.4718 12.9721C45.3941 14.1807 45.4205 15.3937 45.5506 16.5976C45.6372 17.7052 45.6844 18.1913 45.8183 19.1793C45.8566 19.6086 45.925 20.0347 46.0231 20.4542C46.0834 20.6898 46.1877 20.9115 46.3302 21.1076C46.4969 21.3233 46.6931 21.5138 46.913 21.6733C47.1282 21.8298 47.3193 22.0178 47.48 22.2311C47.6762 22.5657 47.7745 22.9498 47.7635 23.3387C47.7635 23.514 47.8108 24.3586 47.8423 25.2112C47.9683 28.3984 48.0155 29.243 48.1258 30.7251C48.2203 32.0558 48.2518 32.3187 48.425 33.6574C48.5008 34.4654 48.6458 35.2652 48.8582 36.0478C49.0314 36.6534 49.1653 36.8924 49.4094 37.0359C49.4832 37.083 49.5626 37.1205 49.6457 37.1474C50.2364 37.259 50.8506 36.6853 50.9609 35.9203C50.9803 35.5753 50.9803 35.2295 50.9609 34.8845C50.9245 34.2568 50.8535 33.6316 50.7482 33.012C50.6301 32.4144 50.5514 32.0319 50.2048 30.5817C49.5039 27.6255 49.2441 26.3267 48.8897 24.0398C48.7617 23.4018 48.6854 22.7542 48.6613 22.1036C48.7144 21.7577 48.8377 21.4267 49.0236 21.1315C49.2709 20.6965 49.444 20.2224 49.5354 19.7291C49.6042 18.961 49.5537 18.1866 49.3858 17.4343C49.2441 16.4701 49.2047 16.2231 49.0078 15.251C48.8471 14.1342 48.5835 13.0352 48.2203 11.9681C48.1713 12.7093 48.2163 13.4537 48.3542 14.1833C48.4985 15.2691 48.5774 16.3627 48.5904 17.4582C48.5904 17.7132 48.551 17.7928 48.4959 17.8008C48.4408 17.8088 48.1809 17.1315 47.8816 15.2112C47.5036 12.7729 47.417 12.3347 47.3304 12.2789C47.2437 12.2231 47.2674 12.7171 47.4485 14.502C47.6058 15.5996 47.6822 16.7076 47.6769 17.8167C47.6769 18.1833 47.5194 18.2311 47.4013 17.9203C47.135 16.9421 46.9532 15.9423 46.8579 14.9323C46.5822 13.0518 46.5035 12.5976 46.4247 12.5418C46.346 12.4861 46.3617 13.0757 46.5192 14.8685C46.6688 16.4622 46.7082 16.9881 46.724 17.49C46.7397 17.992 46.724 18.3825 46.6374 18.4064C46.5507 18.4303 46.4562 18.1992 46.3223 17.6096C46.2278 17.1793 46.1097 16.4303 45.8813 14.9164C45.8469 14.2177 45.7224 13.5266 45.5112 12.8606C45.4884 12.8935 45.4748 12.932 45.4718 12.9721Z" fill="white"/>
<path d="M41.5027 14.4462C41.3294 14.5418 41.2192 14.8207 41.1483 15.2908C41.0681 16.2194 41.0813 17.1538 41.1877 18.0796C41.2428 18.8047 41.7153 22.494 41.9752 24.3426C42.028 25.1671 42.2226 25.9761 42.5501 26.733C42.7173 27.08 42.8188 27.4557 42.8493 27.8406C43.0147 29.0358 43.1329 30.6613 43.1801 32.0318C43.1801 32.5975 43.1801 33.0916 43.1801 34.1513C43.1486 35.0292 43.1828 35.9082 43.2825 36.7808C43.3145 37.1807 43.4075 37.5731 43.5581 37.9442C43.7156 38.3346 43.8337 38.5019 44.0385 38.6055C44.3376 38.7053 44.663 38.6858 44.9484 38.551C45.2338 38.4163 45.4576 38.1764 45.5742 37.8804C45.6934 37.5052 45.7363 37.1095 45.7002 36.7171C45.6446 35.9814 45.5072 35.2543 45.2907 34.5497C45.2434 34.3585 45.141 33.976 45.0623 33.7051C44.7237 32.4461 44.4559 31.3147 44.2275 30.0398C44.0858 29.243 43.8731 27.9442 43.818 27.482L43.7786 27.0836L43.818 26.8525C43.818 26.733 43.9361 26.3346 44.0385 25.9681C44.227 25.3767 44.3588 24.7683 44.4323 24.1513C44.4955 23.2694 44.4265 22.3829 44.2275 21.5219C43.6605 18.0956 42.8887 15.5298 42.1721 14.6772C41.9673 14.4222 41.6995 14.3187 41.5027 14.4462Z" fill="white"/>
</g>
<defs>
<clipPath id="clip0_2061_432">
<rect width="99" height="122" fill="white"/>
</clipPath>
</defs>
</svg>
