<svg width="44" height="40" viewBox="0 0 44 40" fill="none" xmlns="http://www.w3.org/2000/svg">
<path d="M43.9828 19.9123C43.973 19.8076 43.952 19.7046 43.92 19.6046C43.8976 19.504 43.8643 19.4058 43.8208 19.3121C43.8067 19.286 43.8081 19.2551 43.7924 19.229L37.7142 8.82297V4.61531C37.7142 3.39106 37.2176 2.21737 36.3336 1.35163C35.4494 0.486251 34.2505 0 33 0H11C9.74946 0 8.5506 0.486251 7.66629 1.35163C6.78235 2.21734 6.28568 3.39106 6.28568 4.61531V8.82297L0.207299 19.2307C0.186955 19.2647 0.178887 19.3032 0.1617 19.3385C0.144512 19.3739 0.125572 19.423 0.108384 19.4677C0.0417381 19.6346 0.00491184 19.8114 0 19.9907V35.3847C0 36.6089 0.496679 37.7826 1.38061 38.6484C2.2649 39.5138 3.46379 40 4.71429 40H39.2857C40.5362 40 41.7351 39.5138 42.6194 38.6484C43.5033 37.7827 44 36.6089 44 35.3847V20.0003C44 19.9694 43.9842 19.9429 43.9828 19.9123ZM36.1428 12.3307L39.721 18.4614H32.5647L36.1428 12.3307ZM11 3.07726H33C33.4167 3.07726 33.8166 3.23935 34.1112 3.5278C34.4058 3.81625 34.5714 4.20774 34.5714 4.6157V7.69257H9.42854V4.6157C9.42854 4.20774 9.59411 3.81625 9.88875 3.5278C10.1834 3.23935 10.5833 3.07726 11 3.07726ZM8.76836 10.7694H33.4398L28.9458 18.4616H4.28063L8.76836 10.7694ZM3.14283 35.3844V21.5385H28.2857V36.9228H4.71426C4.29755 36.9228 3.89767 36.7608 3.60303 36.4723C3.3084 36.1839 3.14283 35.7924 3.14283 35.3844ZM40.8571 35.3844C40.8571 35.7924 40.6916 36.1839 40.3969 36.4723C40.1023 36.7608 39.7024 36.9228 39.2857 36.9228H31.4285V21.5385H40.8571V35.3844Z" fill="black"/>
</svg>
