<svg width="17" height="27" viewBox="0 0 17 27" fill="none" xmlns="http://www.w3.org/2000/svg">
<path d="M17 13.6756C16.998 13.4481 16.8417 13.265 16.6495 13.265H15.6429C15.8205 12.7816 15.912 12.2601 15.9114 11.7328C15.9026 10.8302 15.6346 9.95794 15.1514 9.25975C14.6683 8.56156 13.9989 8.07884 13.2533 7.89138C14.0548 3.42292 10.5318 1.70979 10.4982 1.67901C10.3191 1.59425 10.1159 1.69695 10.0435 1.90865C10.0258 1.95753 10.0169 2.01016 10.0174 2.06319V2.2266C10.0923 2.95946 9.8679 3.6908 9.41337 4.19578C9.12528 3.87881 8.75979 3.67794 8.36951 3.62177C8.35303 2.80076 8.11454 2.0076 7.68896 1.35906C7.26356 0.710522 6.67356 0.240822 6.00584 0.0188403C5.91097 -0.0160496 5.80828 -0.00205391 5.7224 0.0572782C5.63669 0.116611 5.57595 0.215956 5.55497 0.330878C5.534 0.445795 5.55464 0.56604 5.61206 0.662034C5.66948 0.757831 5.75819 0.820908 5.85671 0.835694C6.37515 1.02019 6.83018 1.39592 7.15536 1.90821C7.48056 2.4207 7.65913 3.0426 7.6648 3.68366C7.10576 3.8593 6.64706 4.33235 6.42338 4.96413C4.24994 5.14509 3.81374 7.03504 3.75417 7.91358C3.00839 8.09907 2.33819 8.57963 1.85371 9.27606C1.36923 9.97268 1.09945 10.8439 1.08863 11.7461C1.08963 12.2689 1.181 12.7859 1.35708 13.2651H0.350506C0.158279 13.2651 0.00199824 13.4482 0 13.6757C0 17.9145 3.62372 21.3762 8.14933 21.5574V25.7035H4.87997C4.68641 25.7035 4.52946 25.8894 4.52946 26.1184C4.52946 26.3477 4.68641 26.5336 4.87997 26.5336H12.1197C12.3132 26.5336 12.4702 26.3477 12.4702 26.1184C12.4702 25.8894 12.3132 25.7035 12.1197 25.7035H8.85029V21.5574C13.3759 21.3764 16.9996 17.9146 16.9996 13.6757L17 13.6756ZM8.14937 4.43396C8.45893 4.43396 8.75566 4.57963 8.97453 4.83884C9.19338 5.09785 9.31637 5.44953 9.31637 5.81593C9.31637 6.18257 9.19338 6.534 8.97453 6.79323C8.75567 7.05244 8.4589 7.19791 8.14937 7.19791C7.83997 7.19791 7.54321 7.05244 7.32438 6.79323C7.10552 6.53402 6.98253 6.18254 6.98253 5.81593C6.98253 5.44949 7.10552 5.09786 7.32438 4.83884C7.54324 4.57963 7.84 4.43396 8.14937 4.43396ZM4.13806 8.655C4.31248 8.62839 4.4433 8.45276 4.44379 8.24441C4.41816 7.63372 4.59674 7.03549 4.94075 6.57936C5.2846 6.12323 5.76643 5.8459 6.28171 5.80704C6.28171 6.59592 6.63704 7.32464 7.21372 7.7191C7.7904 8.11353 8.50108 8.11353 9.07775 7.7191C9.65443 7.32467 10.0098 6.59592 10.0098 5.80704C10.0101 5.47076 9.94636 5.13883 9.82337 4.83565C10.3699 4.32629 10.7031 3.56129 10.7368 2.73835C11.5118 3.2416 12.1143 4.0492 12.4403 5.02216C12.7662 5.99512 12.7953 7.07218 12.5226 8.06779C12.4477 8.27871 12.531 8.52175 12.709 8.61086C12.7407 8.62781 12.7747 8.63826 12.8095 8.64181C13.4657 8.70863 14.0775 9.06186 14.5261 9.63313C14.9746 10.2044 15.2279 10.9526 15.2366 11.7326C15.2276 12.2731 15.0989 12.8016 14.8638 13.2648H2.16235C1.92436 12.8029 1.79554 12.2737 1.78955 11.7326C1.80203 10.9705 2.04651 10.2392 2.47807 9.6737C2.90963 9.10838 3.4993 8.74647 4.13822 8.65498L4.13806 8.655ZM8.5001 20.727C4.35079 20.727 0.950672 17.7907 0.712076 14.1039H16.2881C16.0531 17.7907 12.6495 20.727 8.5001 20.727Z" fill="black"/>
</svg>
