<svg width="13" height="28" viewBox="0 0 13 28" fill="none" xmlns="http://www.w3.org/2000/svg">
<path fill-rule="evenodd" clip-rule="evenodd" d="M9.42493 24.4215C9.42493 24.6719 9.27967 24.875 9.09999 24.875C8.92017 24.875 8.7749 24.6719 8.7749 24.4215C8.7749 24.1712 8.92017 23.9679 9.09999 23.9679C9.27967 23.9679 9.42493 24.1712 9.42493 24.4215Z" fill="black"/>
<path fill-rule="evenodd" clip-rule="evenodd" d="M3.57508 20.3399C3.57508 20.5902 3.42981 20.7933 3.25013 20.7933C3.07031 20.7933 2.92505 20.5902 2.92505 20.3399C2.92505 20.0895 3.07032 19.8862 3.25013 19.8862C3.42981 19.8862 3.57508 20.0895 3.57508 20.3399Z" fill="black"/>
<path fill-rule="evenodd" clip-rule="evenodd" d="M9.58007 27.596H3.42061C2.60003 27.596 1.92005 26.7365 1.83818 25.5973L0.651977 9.04749C0.63443 8.79809 0.764465 8.57583 0.943193 8.55095C1.12423 8.52609 1.2812 8.7083 1.29903 8.95676L2.48499 25.5071C2.533 26.1809 2.93575 26.6888 3.42066 26.6888H9.58011C10.065 26.6888 10.4673 26.1809 10.5158 25.5071L11.7016 8.95676C11.7198 8.70792 11.8778 8.52552 12.0576 8.55095C12.2363 8.57582 12.3663 8.79808 12.3487 9.04749L11.1625 25.5973C11.0806 26.7365 10.4003 27.596 9.58016 27.596" fill="black"/>
<path fill-rule="evenodd" clip-rule="evenodd" d="M0.974983 7.64151C0.795575 7.64151 0.650035 7.84517 0.650035 8.09514C0.650035 8.34492 0.795575 8.54859 0.974983 8.54859H12.025C12.2044 8.54859 12.35 8.34492 12.35 8.09514C12.35 7.84517 12.2044 7.64151 12.025 7.64151H0.974983ZM12.025 9.45567H0.974983C0.437419 9.45567 0 8.84528 0 8.09515C0 7.34501 0.437419 6.73462 0.974983 6.73462H12.025C12.5626 6.73462 13 7.34501 13 8.09515C13 8.84528 12.5626 9.45567 12.025 9.45567Z" fill="black"/>
<path fill-rule="evenodd" clip-rule="evenodd" d="M6.5 7.64142C6.32031 7.64142 6.17505 7.43833 6.17505 7.18798V3.1064C6.17505 2.85605 6.32032 2.65295 6.5 2.65295C6.67968 2.65295 6.82494 2.85605 6.82494 3.1064V7.18798C6.82494 7.43833 6.67968 7.64142 6.5 7.64142Z" fill="black"/>
<path fill-rule="evenodd" clip-rule="evenodd" d="M6.50028 3.55998C6.39894 3.55998 6.29911 3.49374 6.23572 3.36998C6.13112 3.16632 6.16526 2.88296 6.31121 2.73734L8.58613 0.469727C8.73207 0.324714 8.93489 0.37141 9.03921 0.57545C9.14381 0.779111 9.10967 1.06247 8.96386 1.20809L6.68881 3.4757C6.63168 3.53246 6.56571 3.55998 6.50028 3.55998" fill="black"/>
<path fill-rule="evenodd" clip-rule="evenodd" d="M5.91161 21.5926C5.83204 21.5926 5.75234 21.6329 5.68963 21.7145L4.9773 22.6434C4.84659 22.8138 4.83952 23.1018 4.96166 23.2842L5.62719 24.2782C5.75015 24.4615 5.95608 24.471 6.08679 24.3004L6.79912 23.3713C6.9301 23.2007 6.9369 22.9131 6.81476 22.7305L6.14923 21.7363C6.08517 21.6406 5.99866 21.5926 5.91161 21.5926L5.91161 21.5926ZM5.86577 25.3282C5.85448 25.3282 5.84305 25.3282 5.83163 25.3272C5.57101 25.3149 5.32958 25.1627 5.15248 24.8977L4.48681 23.9037C4.11956 23.3554 4.14078 22.4929 4.53361 21.9808L5.24607 21.0521C5.43582 20.8044 5.6861 20.6706 5.94507 20.6875C6.20541 20.6996 6.44684 20.8524 6.62407 21.1174L7.2896 22.1114C7.65686 22.6591 7.63604 23.5218 7.24309 24.0337L6.53034 24.963C6.34903 25.1997 6.1144 25.3282 5.86575 25.3282" fill="black"/>
<path fill-rule="evenodd" clip-rule="evenodd" d="M7.86157 18.0714C7.78199 18.0714 7.70229 18.1118 7.63958 18.1934L6.92725 19.1221C6.79654 19.2927 6.78947 19.5807 6.91161 19.7629L7.57714 20.7571C7.7001 20.9399 7.90603 20.9498 8.03674 20.7793L8.74907 19.85C8.88006 19.6796 8.88686 19.392 8.76471 19.2092L8.09918 18.2152C8.03512 18.1194 7.94861 18.0713 7.86156 18.0713L7.86157 18.0714ZM7.81572 21.8069C7.80443 21.8069 7.793 21.8069 7.78158 21.806C7.52097 21.7938 7.27953 21.6414 7.10243 21.3766L6.43676 20.3824C6.06951 19.8343 6.09073 18.9716 6.48356 18.4595L7.19603 17.5308C7.38577 17.2833 7.63578 17.1495 7.89502 17.1662C8.15536 17.1785 8.39679 17.3313 8.57402 17.5961L9.23955 18.5903C9.60681 19.1381 9.58599 20.0005 9.19304 20.5126L8.48029 21.4419C8.29898 21.6786 8.06436 21.8069 7.8157 21.8069" fill="black"/>
<path fill-rule="evenodd" clip-rule="evenodd" d="M5.26138 15.8042C5.18181 15.8042 5.10224 15.8444 5.03953 15.926L4.32707 16.8549C4.19649 17.0254 4.18928 17.3133 4.31142 17.4957L4.97709 18.4897C5.09992 18.6729 5.30558 18.682 5.43655 18.5119L6.14902 17.5828C6.28001 17.4122 6.28681 17.1246 6.16453 16.9419L5.499 15.9479C5.43493 15.8522 5.34856 15.8042 5.26137 15.8042L5.26138 15.8042ZM5.21567 19.5396C5.20425 19.5396 5.19282 19.5396 5.18153 19.5388C4.92078 19.5265 4.67934 19.3741 4.50225 19.1093L3.83672 18.1153C3.46946 17.5669 3.49055 16.7043 3.88351 16.1924L4.59584 15.2635C4.78558 15.0156 5.03625 14.8831 5.29497 14.8988C5.55517 14.9112 5.79674 15.064 5.97384 15.3289L6.63937 16.323C7.00662 16.8707 6.98581 17.7334 6.59299 18.2453L5.88024 19.1746C5.69879 19.4113 5.46416 19.5396 5.21565 19.5396" fill="black"/>
<path fill-rule="evenodd" clip-rule="evenodd" d="M2.53041 14.7361C1.99354 14.7361 1.47778 14.4267 1.07024 13.8581C0.94306 13.6808 0.94306 13.3936 1.07024 13.2169C1.19687 13.0395 1.40267 13.0395 1.5297 13.2169C1.83288 13.64 2.20407 13.8505 2.58588 13.8273C2.96877 13.8045 3.35358 13.5489 3.6701 13.1076C4.09979 12.5071 4.64316 12.177 5.19991 12.177C5.75666 12.177 6.30004 12.5071 6.72959 13.1076C7.35295 13.9775 8.24673 13.9775 8.87013 13.1076C9.29846 12.5094 9.8409 12.1969 10.4138 12.2322C10.9595 12.2645 11.498 12.6141 11.9296 13.2169C12.0566 13.3942 12.0566 13.6812 11.9296 13.8581C11.8026 14.0354 11.5968 14.0354 11.47 13.8581C11.1535 13.4164 10.7687 13.1611 10.3858 13.1384C10.0049 13.1175 9.63278 13.3257 9.32959 13.7488C8.8999 14.3487 8.35666 14.6794 7.79991 14.6794C7.2432 14.6794 6.69979 14.3487 6.2701 13.7488C5.64674 12.8791 4.75309 12.8791 4.1297 13.7488C3.69809 14.351 3.15962 14.7012 2.61391 14.7335C2.58589 14.7352 2.55801 14.7361 2.5304 14.7361" fill="black"/>
</svg>
