<svg width="20" height="20" viewBox="0 0 20 20" fill="none" xmlns="http://www.w3.org/2000/svg">
<path d="M19.5726 7.60172C19.5725 7.60172 19.5723 7.60157 19.5722 7.60157C20.1991 5.84204 19.0625 4.24244 17.4928 4.01548C17.7193 2.15729 16.2764 0.632824 14.5235 0.632824C13.0232 0.632824 11.7766 1.74161 11.5636 3.1855C11.2658 3.20232 11.1661 2.97582 11.1344 2.94431C10.8507 2.47143 10.3735 2.50475 10.3421 2.49637C9.84824 2.49637 9.53393 2.90504 9.53393 2.97246C9.40547 3.17296 9.12362 3.24178 8.92003 3.12601C8.34054 2.79123 7.61912 3.16333 7.5387 3.81517C7.36084 3.73487 7.22136 3.75674 7.20041 3.74619L9.07665 1.86995C9.29275 1.65691 9.3992 1.37503 9.3992 1.09623C9.3992 0.814364 9.29275 0.53557 9.07665 0.319451C8.65072 -0.106484 7.9553 -0.106484 7.52615 0.319451C5.16955 2.51975 5.26802 2.83602 5.08941 2.51823C5.08635 2.51517 5.08314 2.5089 5.08008 2.50263C4.74882 1.96186 3.96119 1.96123 3.63619 2.51823C3.63619 2.5895 3.371 2.79091 3.13501 2.65297C2.55325 2.32645 1.88015 2.75207 1.87588 3.37959C1.87588 3.59447 1.70046 3.74924 1.50944 3.74924C0.861593 3.74924 0.459697 4.44524 0.779608 5.00516C0.782667 5.00821 0.785879 5.01449 0.788937 5.0177C1.063 5.53752 0.228281 5.46336 0.228281 6.23294C0.228281 6.53682 0.381831 6.80921 0.644897 6.96277C0.647956 6.96583 0.654226 6.96904 0.660497 6.96904C0.865892 7.10194 0.861304 7.38198 0.779484 7.46396C0.776425 7.47023 0.770155 7.47956 0.766943 7.48583C0.563384 7.51091 0.372369 7.60803 0.228133 7.75836C0.0684672 7.93378 -0.0161091 8.16868 0.00255073 8.40359C0.0306912 8.79816 0.0839126 9.19595 0.162217 9.58441V9.58747C0.691552 12.2122 2.3171 14.4987 4.66626 15.8518C5.1142 16.1086 5.4493 16.5126 5.60897 16.9857C5.67473 17.1892 5.5871 17.4179 5.38338 17.5714C5.34576 17.5996 5.30814 17.6309 5.28 17.6623C5.09831 17.8408 4.99814 18.0789 4.99814 18.3482C4.99814 18.8712 5.42407 19.2941 5.9471 19.2941H14.0469C14.5731 19.2941 14.999 18.8682 14.999 18.3357C14.999 18.035 14.855 17.7469 14.6138 17.5682C14.4102 17.4179 14.3225 17.1923 14.3882 16.992C14.4352 16.8542 14.4947 16.7226 14.5699 16.6004C14.7547 16.2903 15.0178 16.0304 15.3311 15.8518C17.6771 14.4988 19.3058 12.2154 19.8351 9.59375C19.8753 9.55353 19.9801 8.65426 19.998 8.4036C20.0208 8.07127 19.8481 7.75744 19.5727 7.60177L19.5726 7.60172ZM19.106 7.48258H15.1219C15.0875 7.40734 15.0592 7.32903 15.0373 7.25073C15.0514 7.16661 15.0347 6.97896 14.9527 6.806C14.9492 6.77235 14.9371 6.62079 14.9465 6.59296C16.1117 6.43008 17.0669 5.58753 17.3958 4.47875C18.8331 4.66059 19.6772 6.18586 19.1061 7.48261L19.106 7.48258ZM14.5236 1.10237C15.9934 1.10237 17.2343 2.38444 17.0231 3.9903C16.998 4.15624 16.9573 4.31606 16.9041 4.46944C16.5158 5.56844 15.4301 6.22655 14.3796 6.15145C14.3212 5.99959 14.3559 5.87938 14.4203 5.75061C14.7546 5.13781 14.3089 4.38609 13.6091 4.38182C13.4869 4.38182 13.3742 4.33487 13.2865 4.24708C13.0044 3.97501 13.3306 3.49172 12.6883 3.12573C12.4972 3.01607 12.2812 2.97845 12.0744 3.01607C12.3469 1.91982 13.3398 1.10236 14.5237 1.10236L14.5236 1.10237ZM7.99936 3.92758C8.00318 3.59096 8.36641 3.35267 8.6853 3.53301C9.29247 3.88369 9.95375 3.36982 9.95375 3.17911C10.1359 2.88914 10.5664 2.89679 10.7368 3.19165C10.8591 3.43619 11.1727 3.65168 11.5291 3.65521C11.7278 3.65521 11.8538 3.6052 11.999 3.53301H12.002C12.3091 3.35943 12.6817 3.57889 12.6817 3.92758C12.6817 4.44909 13.114 4.85165 13.6057 4.85165C13.8908 4.85471 14.063 5.08962 14.063 5.30894C14.063 5.39673 13.5314 6.39463 14.3418 6.79978C14.4045 6.83419 14.4545 6.88435 14.4922 6.94078C14.5078 7.05977 14.5298 7.1757 14.5579 7.28841C14.5454 7.36044 14.511 7.42621 14.464 7.48264H13.2237C13.233 7.38874 13.2393 7.29162 13.2393 7.1913C13.2393 6.86248 13.1861 6.54928 13.0827 6.2547C12.8447 5.55928 12.3466 4.97995 11.7046 4.63541C10.4575 3.9683 8.89006 4.29712 8.02123 5.45913C7.6418 5.14454 8.29392 4.81128 7.96174 4.19695C7.98682 4.11237 7.99936 4.02153 7.99936 3.92763L7.99936 3.92758ZM7.95546 7.48246C7.67467 6.92087 8.50054 6.97549 8.50054 6.23265C8.50054 6.06977 8.45359 5.91317 8.3658 5.78162C9.75386 3.85597 12.7696 4.85071 12.7696 7.1911C12.7696 7.29127 12.7633 7.38839 12.7508 7.48244L7.95546 7.48246ZM7.85835 0.651222C7.98054 0.532235 8.14342 0.469533 8.30307 0.469533C8.46274 0.469533 8.62256 0.532239 8.74475 0.651222C8.98899 0.895464 8.98899 1.29324 8.74475 1.53766L5.93833 4.34408C5.69409 4.58832 5.29632 4.58832 5.0551 4.34408C4.81086 4.09984 4.81086 3.70206 5.0551 3.45764C8.89721 -0.388578 3.90716 4.60741 7.85831 0.651222H7.85835ZM0.698227 6.23586C0.698227 6.00921 0.861107 5.93825 0.892456 5.90705C1.28398 5.67214 1.41549 5.1679 1.19007 4.77317C1.18702 4.77011 1.1838 4.76384 1.18074 4.76063C1.05426 4.52113 1.22601 4.21876 1.50956 4.21876C1.96118 4.21876 2.34581 3.85003 2.34581 3.38252C2.34581 3.0693 2.6841 2.93458 2.9002 3.05997C3.28866 3.28234 3.81796 3.13827 4.0434 2.75608C4.04646 2.75303 4.04967 2.74675 4.04967 2.74048C4.20353 2.50267 4.54733 2.51505 4.68237 2.75303C4.68542 2.7593 4.68864 2.76557 4.69491 2.77184C4.74186 2.85014 4.80135 2.91911 4.87033 2.9754L4.71999 3.12573C4.29406 3.55488 4.29406 4.25014 4.71999 4.67623C5.15618 5.10612 5.84835 5.09817 6.27049 4.67623L6.82794 4.11878C7.09772 4.26392 7.25113 4.18103 7.38233 4.25979C7.55591 4.34238 7.63054 4.55527 7.56708 4.70773C7.55484 4.7504 7.53634 4.77166 7.52946 4.79231C7.29837 5.21472 7.4926 5.74022 7.84573 5.91671C8.0866 6.05344 8.09334 6.39738 7.85827 6.54941C7.7454 6.54941 7.32009 6.97304 7.45422 7.48279H1.2776C1.40071 6.97213 0.982739 6.54941 0.867288 6.54941C0.760841 6.48028 0.698292 6.36435 0.698292 6.23589L0.698227 6.23586ZM0.572819 8.07769C0.604171 8.04634 0.638583 8.0182 0.676204 7.99939C0.769648 7.94754 19.1638 7.87933 19.3533 8.02126C19.4455 8.06745 19.5428 8.21014 19.5287 8.36889C19.5087 8.66359 19.4732 8.95769 19.4128 9.30227H0.588488H0.585429C0.547806 9.08617 0.516455 8.86381 0.494585 8.64448C0.485255 8.55363 0.475773 8.45973 0.469503 8.36888C0.463386 8.26243 0.497796 8.15905 0.572888 8.07769L0.572819 8.07769ZM15.0966 15.4445C14.7145 15.6638 14.395 15.9801 14.1663 16.3591C14.0755 16.5126 14.0004 16.6723 13.9439 16.8414C13.8124 17.2392 13.9628 17.6746 14.3355 17.947C14.4577 18.0379 14.5297 18.1789 14.5297 18.3448C14.5297 18.6079 14.3136 18.8239 14.0473 18.8239H5.94758C5.68452 18.8239 5.46843 18.6109 5.46843 18.3353C5.46843 18.2069 5.5186 18.0848 5.6125 17.994C5.6281 17.9752 5.64691 17.9596 5.66572 17.947C6.03537 17.6682 6.1857 17.233 6.05419 16.8382C5.8569 16.2557 5.44964 15.7608 4.90151 15.4443C2.75289 14.2071 1.24002 12.1493 0.682492 9.772H19.3157C18.7581 12.1496 17.2452 14.2075 15.0967 15.4443L15.0966 15.4445Z" fill="black"/>
</svg>
