<svg width="20" height="22" viewBox="0 0 20 22" fill="none" xmlns="http://www.w3.org/2000/svg">
<path opacity="0.5" d="M6.9934 20.026V16.8739C6.99339 16.0752 7.6586 15.4263 8.48256 15.4213H11.508C12.3357 15.4213 13.0066 16.0717 13.0066 16.8739V16.8739V20.0169C13.0066 20.7097 13.5832 21.2727 14.2978 21.2777H16.3619C17.3259 21.2801 18.2513 20.9106 18.9339 20.2507C19.6164 19.5907 20 18.6947 20 17.7602V8.80651C20 8.05165 19.6548 7.33562 19.0575 6.85132L12.0452 1.41517C10.8195 0.464322 9.06881 0.495037 7.87936 1.48826L1.01791 6.85132C0.392359 7.32135 0.0184761 8.0395 0 8.80651V17.751C0 19.6988 1.62882 21.2777 3.63808 21.2777H5.65504C5.99913 21.2801 6.32999 21.1493 6.57418 20.9143C6.81838 20.6793 6.95571 20.3596 6.9557 20.026H6.9934Z" fill="url(#paint0_linear_770_794)"/>
<defs>
<linearGradient id="paint0_linear_770_794" x1="-2.83611e-08" y1="-0.540015" x2="23.117" y2="2.94482" gradientUnits="userSpaceOnUse">
<stop stop-color="#3CAA36"/>
<stop offset="1" stop-color="#008D36"/>
</linearGradient>
</defs>
</svg>
