<svg width="21" height="20" viewBox="0 0 21 20" fill="none" xmlns="http://www.w3.org/2000/svg">
<path opacity="0.5" d="M7.27157 18.7821V15.7152C7.27155 14.9381 7.93911 14.3067 8.76597 14.3018H11.8021C12.6326 14.3018 13.3059 14.9346 13.3059 15.7152V15.7152V18.7732C13.3059 19.4473 13.8846 19.9951 14.6017 20H16.6731C17.6405 20.0023 18.5691 19.6428 19.2541 19.0007C19.939 18.3586 20.324 17.4868 20.324 16.5775V7.86585C20.3239 7.13139 19.9776 6.43471 19.3781 5.9635L12.3412 0.674268C11.1111 -0.250877 9.35429 -0.220992 8.16064 0.745384L1.27503 5.9635C0.64728 6.42082 0.272081 7.11956 0.25354 7.86585V16.5686C0.25354 18.4637 1.8881 20 3.90443 20H5.92849C6.27379 20.0023 6.60582 19.8751 6.85087 19.6464C7.09593 19.4178 7.23374 19.1067 7.23373 18.7821H7.27157Z" fill="url(#paint0_linear_642_146)"/>
<defs>
<linearGradient id="paint0_linear_642_146" x1="0.25354" y1="-1.22807" x2="23.4191" y2="2.37373" gradientUnits="userSpaceOnUse">
<stop stop-color="#3CAA36"/>
<stop offset="1" stop-color="#008D36"/>
</linearGradient>
</defs>
</svg>
