<svg width="26" height="17" viewBox="0 0 26 17" fill="none" xmlns="http://www.w3.org/2000/svg">
<path d="M13.0001 0C12.1689 0 11.4885 0.680334 11.4885 1.51161C11.4885 2.02638 11.7536 2.48547 12.1499 2.7588C6.63949 3.18563 2.27957 7.72002 2.12571 13.3023H0V13.9069H25.9997V13.3023H23.874C23.7205 7.72013 19.3605 3.18583 13.8499 2.7588C14.2461 2.4855 14.5112 2.02664 14.5112 1.51161C14.5112 0.680334 13.8309 0 12.9996 0H13.0001ZM13.0001 0.60459C13.5046 0.60459 13.9072 1.00717 13.9072 1.51161C13.9072 2.01606 13.5046 2.41863 13.0001 2.41863C12.4957 2.41863 12.0931 2.01606 12.0931 1.51161C12.0931 1.00717 12.4957 0.60459 13.0001 0.60459ZM13.0001 3.32539C18.5791 3.32539 23.1096 7.76218 23.2699 13.302H2.73089C2.89095 7.76197 7.42115 3.32539 13.0001 3.32539ZM0.000269782 15.7206V16.3252H26V15.7206H0.000269782Z" fill="black"/>
</svg>
